<svg id="Layer_1" data-name="Layer 1" xmlns="http://www.w3.org/2000/svg" viewBox="0 0 342.18 108.98"><defs><style>.cls-1{fill:#fff;}</style></defs><path class="cls-1" d="M23.6,38.6H36.78L57.06,77.13H46l-4.1-8.5H18.57l-4.14,8.5H3.48ZM38.75,62l-8-16.6-.41-.88h-.11l-.36.88L21.74,62Z"/><path class="cls-1" d="M68,58.41l-6.85-6.85L64.69,48l6.84,6.84L78.38,48,82,51.67l-6.85,6.79,6.75,6.85-3.53,3.47L71.58,62l-6.74,6.79-3.63-3.62Z"/><path class="cls-1" d="M92.54,38.6h30.18c9.18,0,14.48,2.8,14.48,9.18,0,4.61-3,8.35-9.65,9.08v0c7.41.72,11.56,4.56,11.56,9.85,0,7.37-6.27,10.37-16.44,10.37H92.54Zm27.8,15.71c5.24,0,7.47-1.5,7.47-4.3,0-2.23-1.14-4.2-6.23-4.2H102.45v8.5Zm.88,15.56c4.77,0,7.63-1,7.63-4.56,0-3.32-3-4.77-8.82-4.77H102.45v9.33Z"/><path class="cls-1" d="M146.43,38.6h40.46v7.21H156.34V54h28.37v6.64H156.34v9.28h31v7.21H146.43Z"/><path class="cls-1" d="M194.51,38.6h9.91V69.92H231.6v7.21H194.51Z"/><path class="cls-1" d="M232.54,57.89c0-13,10.37-20.12,27.12-20.12s27.07,7.16,27.07,20.12-10.37,20.18-27.07,20.18S232.54,70.86,232.54,57.89ZM259.66,71c10.11,0,17.06-4.87,17.06-13.12s-7-13.12-17.06-13.12-17.11,4.62-17.11,13.12S249.49,71,259.66,71Z"/><path class="cls-1" d="M297.89,38.6,313,69.66l.37,1.09h.05l.47-1.09L329,38.6h11L320,77.13H306.71L287,38.6Z"/></svg>